<svg width="1200" height="600" xml:space="preserve" xmlns:xlink="http://www.w3.org/1999/xlink" xmlns="http://www.w3.org/2000/svg"><style>#bg{fill:#fff}#logo{fill:#1e293b}#tag{fill:#64748b}@media (prefers-color-scheme:dark){#bg{fill:#0F172A}#logo{fill:#F1F5F9}#tag{fill:#94A3B8}}</style><defs> <linearGradient id="b"> <stop style="stop-color:#3b82f6;stop-opacity:1" offset="0"></stop> <stop style="stop-color:#6366f1;stop-opacity:1" offset="1"></stop> </linearGradient> <linearGradient id="a"> <stop style="stop-color:#3b82f6;stop-opacity:1" offset="0"></stop> <stop style="stop-color:#6366f1;stop-opacity:1" offset="1"></stop> </linearGradient> <linearGradient xlink:href="#a" id="c" x1="6.597" y1="6.669" x2="42.313" y2="43.085" gradientUnits="userSpaceOnUse"></linearGradient> <linearGradient xlink:href="#b" id="d" x1="19.26" y1="693.58" x2="1219.26" y2="693.58" gradientUnits="userSpaceOnUse"></linearGradient> <path id="f" d="M337.73 204.796h130.3v53.18h-130.3z"></path> <path id="e" d="M52.716 254.957H754.83v200.825H52.716z"></path> </defs> <path id="bg" style="fill-opacity:1" d="M19.26 106.08h1200v600h-1200z" transform="translate(-19.26 -106.08)"></path> <g aria-label="cloudnode.pro" id="logo"> <path d="M115.86 266.08q-6.16 0-11.04-2.88-4.88-2.88-7.76-7.84-2.8-5.04-2.8-11.36 0-6.32 2.8-11.28 2.88-5.04 7.76-7.92t11.04-2.88q5.68 0 10.4 2 4.8 2 7.6 5.6l-6.96 8.32q-1.12-1.28-2.64-2.4-1.52-1.12-3.36-1.76-1.84-.64-3.84-.64-3.04 0-5.36 1.44-2.32 1.36-3.6 3.84-1.28 2.48-1.28 5.68 0 3.04 1.28 5.52 1.36 2.48 3.68 3.92 2.32 1.44 5.28 1.44 2.08 0 3.84-.48 1.76-.56 3.2-1.6 1.52-1.04 2.8-2.56l6.88 8.4q-2.72 3.44-7.6 5.44-4.8 2-10.32 2zM140.9 265.28v-59.2h12.8v59.2zM184.34 266.08q-6.64 0-11.84-2.88-5.12-2.88-8.16-7.84-2.96-4.96-2.96-11.36 0-6.4 2.96-11.36 3.04-4.96 8.16-7.84 5.2-2.88 11.84-2.88t11.76 2.88q5.2 2.88 8.16 7.84t2.96 11.36q0 6.4-2.96 11.36-2.96 4.96-8.16 7.84-5.12 2.88-11.76 2.88zm0-11.04q2.88 0 5.12-1.44t3.52-3.92q1.28-2.48 1.2-5.68.08-3.2-1.2-5.68-1.28-2.56-3.52-4t-5.12-1.44q-2.88 0-5.2 1.44-2.24 1.44-3.52 4-1.28 2.48-1.2 5.68-.08 3.2 1.2 5.68 1.28 2.48 3.52 3.92 2.32 1.44 5.2 1.44zM230.1 266.16q-4.72 0-8.08-2-3.28-2.08-5.12-5.92-1.76-3.84-1.76-9.2V222.8h12.88v24.48q0 2.56.8 4.4.8 1.84 2.4 2.88 1.6.96 3.84.96 1.68 0 3.04-.56 1.44-.56 2.4-1.52 1.04-1.04 1.6-2.32.56-1.36.56-2.96V222.8h12.88v42.48h-12.08l-.56-8.72 2.4-.96q-.96 3.04-3.2 5.44-2.24 2.32-5.36 3.76-3.12 1.36-6.64 1.36zM283.06 266.16q-5.52 0-9.84-2.8-4.24-2.88-6.72-7.84-2.48-5.04-2.48-11.44 0-6.4 2.48-11.36 2.48-5.04 6.8-7.92t9.92-2.88q2.88 0 5.52.88 2.64.88 4.8 2.4 2.16 1.52 3.52 3.52 1.36 1.92 1.6 4l-3.04.72v-27.36h12.88v59.2h-11.92l-.72-9.68 2.56.4q-.24 2-1.6 3.84-1.28 1.84-3.36 3.28-2.08 1.36-4.8 2.16-2.64.88-5.6.88zm3.28-10.64q2.96 0 5.12-1.44t3.28-4q1.2-2.56 1.2-6 0-3.52-1.2-6.08-1.12-2.56-3.28-4-2.16-1.44-5.12-1.44t-5.12 1.44q-2.08 1.44-3.28 4-1.2 2.56-1.2 6.08 0 3.44 1.2 6t3.28 4q2.16 1.44 5.12 1.44zM319.3 265.28V222.8h12.16l.4 8.64-2.56.96q.88-2.88 3.12-5.2 2.32-2.4 5.52-3.84 3.2-1.44 6.72-1.44 4.8 0 8.08 2 3.28 1.92 4.96 5.84 1.68 3.84 1.68 9.44v26.08H346.5v-25.04q0-2.56-.72-4.24-.72-1.68-2.24-2.48-1.44-.88-3.6-.8-1.68 0-3.12.56-1.44.48-2.48 1.52-1.04.96-1.68 2.24-.56 1.28-.56 2.8v25.44h-12.8zM390.1 266.08q-6.64 0-11.84-2.88-5.12-2.88-8.16-7.84-2.96-4.96-2.96-11.36 0-6.4 2.96-11.36 3.04-4.96 8.16-7.84 5.2-2.88 11.84-2.88t11.76 2.88q5.2 2.88 8.16 7.84t2.96 11.36q0 6.4-2.96 11.36-2.96 4.96-8.16 7.84-5.12 2.88-11.76 2.88zm0-11.04q2.88 0 5.12-1.44t3.52-3.92q1.28-2.48 1.2-5.68.08-3.2-1.2-5.68-1.28-2.56-3.52-4t-5.12-1.44q-2.88 0-5.2 1.44-2.24 1.44-3.52 4-1.28 2.48-1.2 5.68-.08 3.2 1.2 5.68 1.28 2.48 3.52 3.92 2.32 1.44 5.2 1.44zM437.46 266.16q-5.52 0-9.84-2.8-4.24-2.88-6.72-7.84-2.48-5.04-2.48-11.44 0-6.4 2.48-11.36 2.48-5.04 6.8-7.92t9.92-2.88q2.88 0 5.52.88 2.64.88 4.8 2.4 2.16 1.52 3.52 3.52 1.36 1.92 1.6 4l-3.04.72v-27.36h12.88v59.2h-11.92l-.72-9.68 2.56.4q-.24 2-1.6 3.84-1.28 1.84-3.36 3.28-2.08 1.36-4.8 2.16-2.64.88-5.6.88zm3.28-10.64q2.96 0 5.12-1.44t3.28-4q1.2-2.56 1.2-6 0-3.52-1.2-6.08-1.12-2.56-3.28-4-2.16-1.44-5.12-1.44t-5.12 1.44q-2.08 1.44-3.28 4-1.2 2.56-1.2 6.08 0 3.44 1.2 6t3.28 4q2.16 1.44 5.12 1.44zM493.94 266.08q-7.04 0-12.24-2.8-5.2-2.88-8.08-7.76-2.88-4.96-2.88-11.28 0-4.88 1.6-8.96 1.6-4.08 4.48-7.04 2.88-3.04 6.8-4.64 4-1.68 8.72-1.68 4.48 0 8.16 1.6 3.76 1.6 6.48 4.48 2.72 2.88 4.16 6.8t1.28 8.56l-.08 3.44H478.5l-1.84-7.2h25.28l-1.36 1.52v-1.6q-.16-2-1.28-3.52-1.04-1.6-2.8-2.48-1.76-.88-4-.88-3.12 0-5.36 1.28-2.16 1.2-3.28 3.6-1.12 2.32-1.12 5.76 0 3.52 1.44 6.16 1.52 2.56 4.32 4 2.88 1.44 6.8 1.44 2.72 0 4.8-.8 2.16-.8 4.64-2.72l6 8.48q-2.48 2.16-5.28 3.52-2.8 1.36-5.76 2-2.88.72-5.76.72zM525.14 266.16q-3.28 0-5.12-1.84-1.76-1.84-1.76-5.28 0-3.2 1.92-5.2t4.96-2q3.28 0 5.12 1.92 1.84 1.84 1.84 5.28 0 3.12-1.92 5.12t-5.04 2zM541.14 282.88V222.8h12.16l.48 9.52-2.4-.72q.56-2.64 2.72-4.8 2.16-2.16 5.44-3.44 3.36-1.36 7.04-1.36 5.44 0 9.68 2.88 4.24 2.8 6.64 7.76 2.48 4.88 2.48 11.36 0 6.4-2.48 11.36-2.4 4.96-6.72 7.84-4.24 2.8-9.76 2.8-3.6 0-6.88-1.36t-5.52-3.68q-2.24-2.32-2.96-5.04l2.96-1.12v28.08zm22.16-27.68q2.88 0 5.04-1.36 2.16-1.44 3.36-3.92 1.2-2.48 1.2-5.92 0-3.36-1.2-5.84-1.2-2.56-3.36-3.92-2.08-1.44-5.04-1.44t-5.12 1.36q-2.16 1.36-3.36 3.92-1.2 2.56-1.2 5.92 0 3.44 1.2 5.92t3.36 3.92q2.16 1.36 5.12 1.36zM593.859 265.28V222.8h12.16l.56 13.84-2.4-2.64q.96-3.44 3.12-6.16 2.24-2.72 5.2-4.32t6.32-1.6q1.44 0 2.64.24 1.28.24 2.32.56l-3.52 14.16q-.88-.56-2.4-.88-1.44-.4-3.04-.4-1.76 0-3.28.64-1.52.56-2.56 1.68-1.04 1.12-1.68 2.64-.56 1.52-.56 3.44v21.28zM648.499 266.08q-6.64 0-11.84-2.88-5.12-2.88-8.16-7.84-2.96-4.96-2.96-11.36 0-6.4 2.96-11.36 3.04-4.96 8.16-7.84 5.2-2.88 11.84-2.88t11.76 2.88q5.2 2.88 8.16 7.84t2.96 11.36q0 6.4-2.96 11.36-2.96 4.96-8.16 7.84-5.12 2.88-11.76 2.88zm0-11.04q2.88 0 5.12-1.44t3.52-3.92q1.28-2.48 1.2-5.68.08-3.2-1.2-5.68-1.28-2.56-3.52-4t-5.12-1.44q-2.88 0-5.2 1.44-2.24 1.44-3.52 4-1.28 2.48-1.2 5.68-.08 3.2 1.2 5.68 1.28 2.48 3.52 3.92 2.32 1.44 5.2 1.44z" transform="translate(-19.26 -106.08)"></path> </g> <g transform="matrix(4.61272 0 0 4.61272 908.733 59.073)"> <rect style="fill:url(#a);fill-opacity:1;stroke-width:.264583" width="43.358" height="43.358" x="3.527" y="3.453" ry="7.416"></rect> <path d="M26.124 36.39q-3.141 0-5.63-1.468-2.488-1.469-3.956-3.998-1.428-2.57-1.428-5.792t1.428-5.752q1.468-2.57 3.956-4.038 2.489-1.468 5.63-1.468 2.896 0 5.302 1.02 2.448 1.02 3.876 2.855l-3.55 4.242q-.57-.653-1.345-1.224-.775-.57-1.714-.897-.938-.326-1.958-.326-1.55 0-2.733.734-1.183.693-1.835 1.958-.653 1.264-.653 2.896 0 1.55.653 2.815.693 1.264 1.876 1.998 1.183.735 2.692.735 1.061 0 1.958-.245.898-.286 1.632-.816.775-.53 1.428-1.305l3.508 4.283q-1.387 1.754-3.875 2.774-2.448 1.02-5.262 1.02z" style="shape-inside:url(#rect243);fill:#fff;stroke-width:.424908"></path> </g> <path d="M1110.984 605.334c0 .202-.232.363-.524.363-.333.03-.565-.131-.565-.363 0-.202.232-.363.524-.363.303-.03.565.131.565.363zm-3.135-.454c-.071.202.13.434.433.494.262.101.565 0 .625-.201.061-.202-.13-.434-.433-.525-.262-.07-.555.03-.625.232zm4.455-.171c-.292.07-.494.262-.463.494.03.201.292.333.594.262.293-.07.494-.262.464-.464-.03-.191-.302-.322-.595-.292zm6.633-38.629c-13.981 0-24.677 10.615-24.677 24.597 0 11.18 7.036 20.746 17.087 24.112 1.29.232 1.744-.564 1.744-1.22 0-.624-.03-4.072-.03-6.189 0 0-7.057 1.512-8.539-3.004 0 0-1.149-2.933-2.802-3.69 0 0-2.309-1.582.161-1.552 0 0 2.51.202 3.891 2.601 2.208 3.891 5.908 2.772 7.349 2.107.232-1.613.887-2.732 1.613-3.397-5.635-.625-11.32-1.442-11.32-11.14 0-2.771.766-4.162 2.378-5.937-.262-.655-1.119-3.356.263-6.844 2.106-.656 6.955 2.721 6.955 2.721a23.683 23.683 0 0 1 6.33-.856c2.148 0 4.315.292 6.331.856 0 0 4.85-3.387 6.956-2.721 1.381 3.498.524 6.19.262 6.844 1.613 1.785 2.6 3.176 2.6 5.938 0 9.728-5.937 10.504-11.572 11.139.928.796 1.714 2.308 1.714 4.677 0 3.397-.03 7.6-.03 8.428 0 .655.464 1.451 1.744 1.22 10.08-3.347 16.915-12.914 16.915-24.093 0-13.982-11.34-24.597-25.322-24.597zm-14.879 34.768c-.13.1-.1.333.071.524.162.162.394.232.525.101.13-.1.1-.333-.071-.524-.162-.161-.393-.232-.525-.101zm-1.088-.816c-.071.13.03.292.232.393.16.1.362.07.433-.07.071-.132-.03-.293-.232-.394-.201-.06-.363-.03-.433.07zm3.266 3.588c-.161.131-.101.434.13.625.233.232.525.262.656.101.131-.131.071-.433-.13-.625-.223-.232-.525-.262-.656-.1zm-1.15-1.482c-.16.101-.16.363 0 .595.162.232.434.333.565.232.161-.131.161-.393 0-.625-.141-.232-.403-.333-.564-.202z" style="stroke-width:.100806;opacity:1;fill:#94a3b8;fill-opacity:1" transform="translate(-19.26 -106.08)"></path> <path style="fill:url(#b);fill-opacity:1;stroke-width:.881213" d="M19.26 681.08h1200v25h-1200z" transform="translate(-19.26 -106.08)"></path> <g aria-label="High-end professional game hosting at low costs" id="tag"> <path d="M75 245.746v-29.09h3.523v12.954h15.511v-12.955h3.523v29.091h-3.523v-13.011H78.523v13.011zM104.148 245.746v-21.818h3.352v21.818zm1.704-25.454q-.98 0-1.69-.668-.696-.668-.696-1.605 0-.938.696-1.605.71-.668 1.69-.668t1.676.668q.71.667.71 1.605 0 .937-.71 1.605-.696.668-1.676.668zM122.443 254.382q-2.429 0-4.176-.625-1.747-.61-2.912-1.619-1.15-.994-1.832-2.13l2.67-1.876q.455.597 1.15 1.364.697.781 1.904 1.35 1.222.582 3.196.582 2.642 0 4.36-1.279 1.72-1.278 1.72-4.005v-4.432h-.284q-.37.597-1.052 1.477-.667.867-1.931 1.549-1.25.667-3.381.667-2.642 0-4.744-1.25-2.088-1.25-3.31-3.636-1.207-2.387-1.207-5.796 0-3.352 1.179-5.838 1.178-2.5 3.28-3.863 2.103-1.378 4.859-1.378 2.13 0 3.38.71 1.265.696 1.932 1.59.682.882 1.051 1.45h.341v-3.466h3.239v22.443q0 2.813-1.279 4.574-1.264 1.776-3.409 2.6-2.13.837-4.744.837zm-.114-11.988q2.017 0 3.41-.924 1.392-.923 2.116-2.656.724-1.733.724-4.147 0-2.358-.71-4.162-.71-1.804-2.102-2.827t-3.438-1.023q-2.13 0-3.55 1.08-1.407 1.08-2.117 2.897-.696 1.819-.696 4.035 0 2.272.71 4.02.724 1.732 2.13 2.727 1.421.98 3.523.98zM141.363 232.621v13.125h-3.352v-29.09h3.352v10.681h.285q.767-1.69 2.3-2.685 1.549-1.008 4.12-1.008 2.23 0 3.906.895 1.676.88 2.6 2.713.937 1.818.937 4.63v13.864h-3.352V232.11q0-2.6-1.35-4.02-1.335-1.435-3.707-1.435-1.648 0-2.954.696-1.293.696-2.046 2.031-.739 1.336-.739 3.24zM174.148 231.712v3.125H161.42v-3.125zM189.204 246.2q-3.153 0-5.44-1.391-2.273-1.407-3.509-3.92-1.221-2.53-1.221-5.882t1.221-5.909q1.236-2.57 3.438-4.005 2.216-1.45 5.17-1.45 1.705 0 3.367.569 1.662.568 3.025 1.847 1.364 1.264 2.174 3.352.81 2.088.81 5.142v1.42H181.42v-2.897h13.41q0-1.847-.74-3.296-.724-1.449-2.073-2.287-1.335-.838-3.154-.838-2.002 0-3.466.994-1.448.98-2.23 2.557-.78 1.577-.78 3.381v1.932q0 2.471.851 4.19.867 1.705 2.4 2.6 1.535.88 3.566.88 1.321 0 2.387-.37 1.08-.383 1.86-1.135.782-.767 1.208-1.904l3.238.91q-.51 1.647-1.718 2.897-1.208 1.236-2.983 1.932-1.776.682-3.992.682zM206.704 232.621v13.125h-3.352v-21.818h3.239v3.409h.284q.767-1.662 2.33-2.67 1.562-1.023 4.033-1.023 2.216 0 3.878.909 1.662.895 2.585 2.727.924 1.818.924 4.602v13.864h-3.353V232.11q0-2.571-1.335-4.006-1.335-1.449-3.665-1.449-1.605 0-2.869.696-1.25.696-1.974 2.031-.725 1.336-.725 3.24zM235 246.2q-2.728 0-4.816-1.377-2.088-1.392-3.267-3.92-1.179-2.543-1.179-6.01 0-3.437 1.18-5.965 1.178-2.529 3.28-3.906 2.103-1.378 4.858-1.378 2.131 0 3.367.71 1.25.696 1.903 1.59.668.882 1.037 1.45h.284v-10.739H245v29.091h-3.239v-3.352h-.398q-.369.596-1.05 1.505-.683.895-1.947 1.606-1.264.696-3.366.696zm.454-3.01q2.017 0 3.41-1.052 1.391-1.065 2.116-2.94.724-1.89.724-4.361 0-2.443-.71-4.276-.71-1.846-2.102-2.869-1.392-1.037-3.438-1.037-2.13 0-3.55 1.094-1.407 1.08-2.117 2.94-.696 1.847-.696 4.148 0 2.33.71 4.233.724 1.89 2.13 3.011 1.42 1.108 3.523 1.108zM262.84 253.928v-30h3.24v3.466h.397q.37-.568 1.023-1.45.667-.894 1.903-1.59 1.25-.71 3.38-.71 2.756 0 4.859 1.378 2.102 1.377 3.28 3.906 1.18 2.528 1.18 5.966 0 3.466-1.18 6.008-1.178 2.529-3.266 3.92-2.088 1.379-4.816 1.379-2.102 0-3.366-.696-1.264-.71-1.946-1.606-.682-.909-1.051-1.505h-.284v11.534zm3.296-19.091q0 2.472.724 4.36.725 1.876 2.117 2.941 1.392 1.051 3.409 1.051 2.102 0 3.508-1.108 1.42-1.122 2.131-3.011.725-1.903.725-4.233 0-2.301-.71-4.148-.697-1.86-2.117-2.94-1.406-1.094-3.537-1.094-2.046 0-3.438 1.037-1.392 1.023-2.102 2.87-.71 1.832-.71 4.275zM287.215 245.746v-21.818h3.239v3.295h.227q.597-1.619 2.16-2.628 1.562-1.008 3.522-1.008.37 0 .923.014.554.014.838.043v3.409q-.17-.043-.78-.128-.597-.1-1.265-.1-1.59 0-2.84.668-1.237.654-1.961 1.818-.71 1.151-.71 2.628v13.807zM310.283 246.2q-2.954 0-5.184-1.406-2.216-1.406-3.466-3.934-1.236-2.529-1.236-5.91 0-3.408 1.236-5.951 1.25-2.543 3.466-3.949 2.23-1.406 5.184-1.406 2.955 0 5.17 1.406 2.231 1.406 3.467 3.949 1.25 2.543 1.25 5.952 0 3.38-1.25 5.909-1.236 2.528-3.466 3.934-2.216 1.407-5.17 1.407zm0-3.01q2.245 0 3.694-1.151 1.449-1.15 2.145-3.026.696-1.875.696-4.062 0-2.188-.696-4.077-.696-1.89-2.145-3.054-1.45-1.165-3.694-1.165-2.244 0-3.693 1.165-1.449 1.165-2.145 3.054-.696 1.89-.696 4.077 0 2.187.696 4.062.696 1.875 2.145 3.026 1.45 1.15 3.693 1.15zM335 223.928v2.84h-11.762v-2.84zm-8.24 21.818v-24.83q0-1.874.881-3.124t2.287-1.875q1.407-.625 2.97-.625 1.235 0 2.016.198.781.2 1.165.37l-.966 2.897q-.256-.085-.71-.213-.44-.127-1.165-.127-1.662 0-2.4.838-.725.838-.725 2.457v24.034zM347.954 246.2q-3.154 0-5.44-1.391-2.273-1.407-3.51-3.92-1.22-2.53-1.22-5.882t1.22-5.909q1.237-2.57 3.438-4.005 2.216-1.45 5.17-1.45 1.705 0 3.367.569 1.662.568 3.026 1.847 1.364 1.264 2.173 3.352.81 2.088.81 5.142v1.42H340.17v-2.897h13.409q0-1.847-.739-3.296-.724-1.449-2.074-2.287-1.335-.838-3.153-.838-2.003 0-3.466.994-1.449.98-2.23 2.557-.781 1.577-.781 3.381v1.932q0 2.471.852 4.19.866 1.705 2.4 2.6 1.535.88 3.566.88 1.32 0 2.386-.37 1.08-.383 1.861-1.135.781-.767 1.207-1.904l3.239.91q-.511 1.647-1.719 2.897-1.207 1.236-2.983 1.932-1.775.682-3.991.682zM377.556 228.814l-3.011.853q-.284-.753-.838-1.464-.54-.724-1.478-1.193-.937-.468-2.4-.468-2.003 0-3.338.923-1.321.909-1.321 2.315 0 1.25.909 1.975.909.724 2.84 1.207l3.24.795q2.925.71 4.36 2.174 1.435 1.449 1.435 3.736 0 1.875-1.08 3.352-1.065 1.477-2.983 2.33-1.917.852-4.46.852-3.338 0-5.525-1.45-2.188-1.448-2.77-4.232l3.181-.796q.455 1.762 1.72 2.642 1.278.881 3.337.881 2.344 0 3.722-.994 1.392-1.009 1.392-2.415 0-1.136-.796-1.903-.795-.782-2.443-1.165l-3.636-.852q-2.997-.71-4.404-2.202-1.392-1.506-1.392-3.764 0-1.847 1.037-3.267 1.052-1.42 2.855-2.23 1.819-.81 4.12-.81 3.238 0 5.085 1.42 1.86 1.42 2.642 3.75zM398.465 228.814l-3.011.853q-.284-.753-.838-1.464-.54-.724-1.478-1.193-.937-.468-2.4-.468-2.003 0-3.338.923-1.321.909-1.321 2.315 0 1.25.909 1.975.909.724 2.84 1.207l3.24.795q2.926.71 4.36 2.174 1.435 1.449 1.435 3.736 0 1.875-1.08 3.352-1.065 1.477-2.983 2.33-1.917.852-4.46.852-3.338 0-5.525-1.45-2.188-1.448-2.77-4.232l3.181-.796q.455 1.762 1.72 2.642 1.278.881 3.337.881 2.344 0 3.722-.994 1.392-1.009 1.392-2.415 0-1.136-.796-1.903-.795-.782-2.443-1.165l-3.636-.852q-2.997-.71-4.403-2.202-1.393-1.506-1.393-3.764 0-1.847 1.037-3.267 1.052-1.42 2.856-2.23 1.818-.81 4.119-.81 3.238 0 5.085 1.42 1.86 1.42 2.642 3.75zM403.92 245.746v-21.818h3.352v21.818zm1.704-25.454q-.98 0-1.69-.668-.696-.668-.696-1.605 0-.938.696-1.605.71-.668 1.69-.668t1.676.668q.71.667.71 1.605 0 .937-.71 1.605-.696.668-1.676.668zM422.272 246.2q-2.955 0-5.185-1.406-2.216-1.406-3.466-3.934-1.236-2.529-1.236-5.91 0-3.408 1.236-5.951 1.25-2.543 3.466-3.949 2.23-1.406 5.185-1.406 2.954 0 5.17 1.406 2.23 1.406 3.466 3.949 1.25 2.543 1.25 5.952 0 3.38-1.25 5.909-1.236 2.528-3.466 3.934-2.216 1.407-5.17 1.407zm0-3.01q2.244 0 3.693-1.151 1.449-1.15 2.145-3.026.696-1.875.696-4.062 0-2.188-.696-4.077-.696-1.89-2.145-3.054-1.449-1.165-3.693-1.165-2.244 0-3.693 1.165-1.45 1.165-2.145 3.054-.696 1.89-.696 4.077 0 2.187.696 4.062.696 1.875 2.145 3.026 1.449 1.15 3.693 1.15zM440.624 232.621v13.125h-3.352v-21.818h3.238v3.409h.285q.767-1.662 2.33-2.67 1.562-1.023 4.033-1.023 2.216 0 3.878.909 1.662.895 2.585 2.727.924 1.818.924 4.602v13.864h-3.353V232.11q0-2.571-1.335-4.006-1.335-1.449-3.665-1.449-1.605 0-2.869.696-1.25.696-1.974 2.031-.725 1.336-.725 3.24zM467.101 246.257q-2.074 0-3.764-.78-1.69-.796-2.685-2.288-.994-1.505-.994-3.636 0-1.875.739-3.04.738-1.179 1.974-1.846 1.236-.668 2.727-.995 1.506-.34 3.026-.54 1.989-.255 3.224-.383 1.25-.142 1.819-.469.582-.327.582-1.136v-.114q0-2.102-1.15-3.267-1.137-1.165-3.452-1.165-2.4 0-3.764 1.051-1.364 1.052-1.918 2.245l-3.182-1.137q.852-1.988 2.273-3.096 1.435-1.122 3.125-1.563 1.704-.454 3.352-.454 1.051 0 2.415.255 1.378.242 2.656 1.009 1.293.767 2.145 2.315.852 1.549.852 4.148v14.375h-3.352v-2.954h-.17q-.341.71-1.137 1.52-.795.81-2.116 1.377-1.321.568-3.225.568zm.512-3.01q1.988 0 3.352-.782 1.378-.781 2.074-2.017.71-1.236.71-2.6v-3.068q-.213.256-.937.469-.71.199-1.648.355-.923.142-1.804.256-.867.1-1.406.17-1.307.17-2.444.554-1.122.37-1.818 1.122-.682.739-.682 2.017 0 1.747 1.293 2.642 1.307.881 3.31.881zM486.59 216.655v29.091h-3.352v-29.09zM512.783 254.382q-2.429 0-4.176-.625-1.747-.61-2.912-1.619-1.15-.994-1.832-2.13l2.67-1.876q.455.597 1.15 1.364.697.781 1.904 1.35 1.222.582 3.196.582 2.642 0 4.36-1.279 1.72-1.278 1.72-4.005v-4.432h-.285q-.369.597-1.05 1.477-.668.867-1.933 1.549-1.25.667-3.38.667-2.642 0-4.745-1.25-2.088-1.25-3.31-3.636-1.207-2.387-1.207-5.796 0-3.352 1.18-5.838 1.178-2.5 3.28-3.863 2.103-1.378 4.859-1.378 2.13 0 3.38.71 1.264.696 1.932 1.59.682.882 1.051 1.45h.341v-3.466h3.239v22.443q0 2.813-1.279 4.574-1.264 1.776-3.409 2.6-2.13.837-4.744.837zm-.114-11.988q2.017 0 3.41-.924 1.391-.923 2.116-2.656.724-1.733.724-4.147 0-2.358-.71-4.162-.71-1.804-2.102-2.827t-3.438-1.023q-2.13 0-3.55 1.08-1.407 1.08-2.117 2.897-.696 1.819-.696 4.035 0 2.272.71 4.02.724 1.732 2.13 2.727 1.421.98 3.523.98zM534.772 246.257q-2.074 0-3.765-.78-1.69-.796-2.684-2.288-.995-1.505-.995-3.636 0-1.875.739-3.04.739-1.179 1.974-1.846 1.236-.668 2.728-.995 1.505-.34 3.025-.54 1.989-.255 3.225-.383 1.25-.142 1.818-.469.582-.327.582-1.136v-.114q0-2.102-1.15-3.267-1.137-1.165-3.452-1.165-2.4 0-3.764 1.051-1.364 1.052-1.918 2.245l-3.182-1.137q.853-1.988 2.273-3.096 1.435-1.122 3.125-1.563 1.705-.454 3.352-.454 1.051 0 2.415.255 1.378.242 2.656 1.009 1.293.767 2.145 2.315.853 1.549.853 4.148v14.375h-3.353v-2.954h-.17q-.341.71-1.137 1.52-.795.81-2.116 1.377-1.321.568-3.224.568zm.51-3.01q1.99 0 3.353-.782 1.378-.781 2.074-2.017.71-1.236.71-2.6v-3.068q-.213.256-.937.469-.71.199-1.648.355-.923.142-1.804.256-.866.1-1.406.17-1.307.17-2.443.554-1.123.37-1.819 1.122-.681.739-.681 2.017 0 1.747 1.292 2.642 1.307.881 3.31.881zM550.908 245.746v-21.818h3.238v3.409h.285q.681-1.747 2.201-2.713 1.52-.98 3.65-.98 2.16 0 3.595.98 1.448.966 2.258 2.713h.227q.838-1.69 2.515-2.685 1.676-1.008 4.02-1.008 2.926 0 4.786 1.832 1.861 1.818 1.861 5.668v14.602h-3.352v-14.602q0-2.415-1.321-3.452t-3.11-1.037q-2.302 0-3.566 1.392-1.264 1.378-1.264 3.495v14.204h-3.41v-14.943q0-1.86-1.207-2.997-1.207-1.15-3.11-1.15-1.308 0-2.444.695-1.122.696-1.818 1.932-.682 1.222-.682 2.827v13.636zM594.828 246.2q-3.153 0-5.44-1.391-2.273-1.407-3.509-3.92-1.221-2.53-1.221-5.882t1.221-5.909q1.236-2.57 3.438-4.005 2.216-1.45 5.17-1.45 1.705 0 3.367.569 1.662.568 3.025 1.847 1.364 1.264 2.174 3.352.81 2.088.81 5.142v1.42h-16.819v-2.897h13.41q0-1.847-.74-3.296-.724-1.449-2.073-2.287-1.335-.838-3.154-.838-2.002 0-3.466.994-1.448.98-2.23 2.557-.78 1.577-.78 3.381v1.932q0 2.471.851 4.19.867 1.705 2.4 2.6 1.535.88 3.566.88 1.321 0 2.387-.37 1.08-.383 1.86-1.135.782-.767 1.208-1.904l3.238.91q-.51 1.647-1.718 2.897-1.208 1.236-2.983 1.932-1.776.682-3.992.682zM623.578 232.621v13.125h-3.352v-29.09h3.352v10.681h.284q.767-1.69 2.301-2.685 1.549-1.008 4.12-1.008 2.23 0 3.906.895 1.676.88 2.6 2.713.937 1.818.937 4.63v13.864h-3.352V232.11q0-2.6-1.35-4.02-1.335-1.435-3.707-1.435-1.648 0-2.955.696-1.292.696-2.045 2.031-.739 1.336-.739 3.24zM652.726 246.2q-2.955 0-5.185-1.406-2.216-1.406-3.466-3.934-1.236-2.529-1.236-5.91 0-3.408 1.236-5.951 1.25-2.543 3.466-3.949 2.23-1.406 5.185-1.406 2.954 0 5.17 1.406 2.23 1.406 3.466 3.949 1.25 2.543 1.25 5.952 0 3.38-1.25 5.909-1.236 2.528-3.466 3.934-2.216 1.407-5.17 1.407zm0-3.01q2.244 0 3.693-1.151 1.449-1.15 2.145-3.026.696-1.875.696-4.062 0-2.188-.696-4.077-.696-1.89-2.145-3.054-1.449-1.165-3.693-1.165-2.244 0-3.693 1.165-1.45 1.165-2.145 3.054-.696 1.89-.696 4.077 0 2.187.696 4.062.696 1.875 2.145 3.026 1.449 1.15 3.693 1.15zM683.18 228.814l-3.01.853q-.285-.753-.839-1.464-.54-.724-1.477-1.193-.938-.468-2.4-.468-2.004 0-3.339.923-1.32.909-1.32 2.315 0 1.25.908 1.975.91.724 2.841 1.207l3.239.795q2.926.71 4.36 2.174 1.435 1.449 1.435 3.736 0 1.875-1.08 3.352-1.065 1.477-2.982 2.33-1.918.852-4.46.852-3.339 0-5.526-1.45-2.188-1.448-2.77-4.232l3.182-.796q.454 1.762 1.719 2.642 1.278.881 3.338.881 2.343 0 3.721-.994 1.392-1.009 1.392-2.415 0-1.136-.795-1.903-.796-.782-2.443-1.165l-3.637-.852q-2.997-.71-4.403-2.202-1.392-1.506-1.392-3.764 0-1.847 1.037-3.267 1.05-1.42 2.855-2.23 1.818-.81 4.12-.81 3.238 0 5.084 1.42 1.861 1.42 2.642 3.75zM698.124 223.928v2.84h-11.307v-2.84zm-8.012-5.227h3.352v20.795q0 1.42.412 2.13.426.697 1.08.938.668.228 1.406.228.554 0 .91-.057l.567-.114.682 3.011q-.34.128-.951.256-.611.142-1.549.142-1.42 0-2.784-.61-1.35-.611-2.244-1.861-.88-1.25-.88-3.154zM703.18 245.746v-21.818h3.353v21.818zm1.705-25.454q-.98 0-1.69-.668-.696-.668-.696-1.605 0-.938.696-1.605.71-.668 1.69-.668t1.676.668q.71.667.71 1.605 0 .937-.71 1.605-.696.668-1.676.668zM716.021 232.621v13.125h-3.352v-21.818h3.239v3.409h.284q.767-1.662 2.33-2.67 1.562-1.023 4.033-1.023 2.216 0 3.878.909 1.662.895 2.585 2.727.924 1.818.924 4.602v13.864h-3.353V232.11q0-2.571-1.335-4.006-1.335-1.449-3.665-1.449-1.605 0-2.869.696-1.25.696-1.974 2.031-.725 1.336-.725 3.24zM744.885 254.382q-2.43 0-4.176-.625-1.747-.61-2.912-1.619-1.15-.994-1.833-2.13l2.67-1.876q.455.597 1.151 1.364.696.781 1.904 1.35 1.221.582 3.196.582 2.642 0 4.36-1.279 1.72-1.278 1.72-4.005v-4.432h-.285q-.37.597-1.05 1.477-.668.867-1.933 1.549-1.25.667-3.38.667-2.642 0-4.745-1.25-2.088-1.25-3.31-3.636-1.207-2.387-1.207-5.796 0-3.352 1.18-5.838 1.178-2.5 3.28-3.863 2.103-1.378 4.858-1.378 2.131 0 3.381.71 1.264.696 1.932 1.59.682.882 1.051 1.45h.341v-3.466h3.239v22.443q0 2.813-1.279 4.574-1.264 1.776-3.409 2.6-2.13.837-4.744.837zm-.114-11.988q2.017 0 3.41-.924 1.391-.923 2.116-2.656.724-1.733.724-4.147 0-2.358-.71-4.162-.71-1.804-2.102-2.827t-3.438-1.023q-2.13 0-3.551 1.08-1.406 1.08-2.116 2.897-.696 1.819-.696 4.035 0 2.272.71 4.02.724 1.732 2.13 2.727 1.42.98 3.523.98zM80.966 296.257q-2.074 0-3.764-.78-1.69-.796-2.685-2.288-.994-1.505-.994-3.636 0-1.875.738-3.04.739-1.179 1.975-1.846 1.236-.668 2.727-.995 1.506-.34 3.026-.54 1.988-.255 3.224-.383 1.25-.142 1.818-.469.583-.327.583-1.136v-.114q0-2.102-1.15-3.267-1.137-1.165-3.453-1.165-2.4 0-3.764 1.051-1.363 1.052-1.917 2.245l-3.182-1.137q.852-1.988 2.272-3.096 1.435-1.122 3.125-1.563 1.705-.454 3.353-.454 1.05 0 2.414.255 1.378.242 2.657 1.009 1.292.767 2.145 2.315.852 1.549.852 4.148v14.375h-3.352v-2.954h-.17q-.342.71-1.137 1.52-.796.81-2.117 1.377-1.32.568-3.224.568zm.511-3.01q1.989 0 3.353-.782 1.377-.781 2.073-2.017.71-1.236.71-2.6v-3.068q-.212.256-.937.469-.71.199-1.648.355-.923.142-1.804.256-.866.1-1.406.17-1.307.17-2.443.554-1.122.37-1.818 1.122-.682.739-.682 2.017 0 1.747 1.293 2.642 1.306.881 3.31.881zM106.59 273.928v2.84H95.285v-2.84zm-8.01-5.227h3.352v20.795q0 1.42.412 2.13.426.697 1.08.938.667.228 1.405.228.554 0 .91-.057l.568-.114.682 3.011q-.341.128-.952.256-.61.142-1.548.142-1.42 0-2.785-.61-1.349-.611-2.244-1.861-.88-1.25-.88-3.154zM126.25 266.655v29.091h-3.352v-29.09zM141.25 296.2q-2.955 0-5.185-1.406-2.216-1.406-3.466-3.934-1.236-2.529-1.236-5.91 0-3.408 1.236-5.951 1.25-2.543 3.466-3.949 2.23-1.406 5.185-1.406 2.954 0 5.17 1.406 2.23 1.406 3.466 3.949 1.25 2.543 1.25 5.952 0 3.38-1.25 5.909-1.236 2.528-3.466 3.934-2.216 1.407-5.17 1.407zm0-3.01q2.244 0 3.693-1.151 1.449-1.15 2.145-3.026.696-1.875.696-4.062 0-2.188-.696-4.077-.696-1.89-2.145-3.054-1.449-1.165-3.693-1.165-2.245 0-3.693 1.165-1.45 1.165-2.145 3.054-.696 1.89-.696 4.077 0 2.187.696 4.062.696 1.875 2.145 3.026 1.448 1.15 3.693 1.15zM160.454 295.746l-6.647-21.818h3.522l4.716 16.704h.227l4.66-16.704h3.58l4.601 16.648h.228l4.716-16.648h3.522l-6.647 21.818h-3.296l-4.773-16.761h-.34l-4.773 16.761zM208.125 296.2q-3.069 0-5.285-1.448-2.215-1.45-3.409-3.992-1.193-2.542-1.193-5.81 0-3.323 1.222-5.866 1.236-2.557 3.437-3.991 2.216-1.45 5.17-1.45 2.302 0 4.148.853 1.847.852 3.026 2.386 1.179 1.535 1.463 3.58h-3.352q-.384-1.492-1.705-2.642-1.307-1.165-3.522-1.165-1.96 0-3.438 1.023-1.463 1.008-2.287 2.855-.81 1.832-.81 4.304 0 2.528.796 4.403.81 1.875 2.273 2.912 1.477 1.037 3.466 1.037 1.306 0 2.372-.454 1.065-.455 1.804-1.307.738-.852 1.05-2.046h3.353q-.284 1.932-1.406 3.48-1.108 1.535-2.94 2.444-1.819.895-4.233.895zM230.454 296.2q-2.954 0-5.185-1.406-2.215-1.406-3.465-3.934-1.236-2.529-1.236-5.91 0-3.408 1.236-5.951 1.25-2.543 3.465-3.949 2.23-1.406 5.185-1.406 2.955 0 5.17 1.406 2.23 1.406 3.466 3.949 1.25 2.543 1.25 5.952 0 3.38-1.25 5.909-1.235 2.528-3.465 3.934-2.216 1.407-5.17 1.407zm0-3.01q2.244 0 3.693-1.151 1.45-1.15 2.145-3.026.696-1.875.696-4.062 0-2.188-.696-4.077-.696-1.89-2.145-3.054-1.449-1.165-3.693-1.165-2.244 0-3.693 1.165-1.449 1.165-2.145 3.054-.696 1.89-.696 4.077 0 2.187.696 4.062.696 1.875 2.145 3.026 1.449 1.15 3.693 1.15zM260.909 278.814l-3.012.853q-.284-.753-.838-1.464-.54-.724-1.477-1.193-.938-.468-2.4-.468-2.004 0-3.339.923-1.32.909-1.32 2.315 0 1.25.908 1.975.91.724 2.841 1.207l3.239.795q2.926.71 4.36 2.174 1.435 1.449 1.435 3.736 0 1.875-1.08 3.352-1.065 1.477-2.982 2.33-1.918.852-4.46.852-3.338 0-5.526-1.45-2.187-1.448-2.77-4.232l3.182-.796q.454 1.762 1.719 2.642 1.278.881 3.338.881 2.344 0 3.721-.994 1.392-1.009 1.392-2.415 0-1.136-.795-1.903-.796-.782-2.443-1.165l-3.637-.852q-2.997-.71-4.403-2.202-1.392-1.506-1.392-3.764 0-1.847 1.037-3.267 1.051-1.42 2.855-2.23 1.818-.81 4.12-.81 3.238 0 5.085 1.42 1.86 1.42 2.642 3.75zM275.852 273.928v2.84h-11.307v-2.84zm-8.012-5.227h3.353v20.795q0 1.42.412 2.13.426.697 1.08.938.667.228 1.405.228.554 0 .91-.057l.568-.114.681 3.011q-.34.128-.951.256-.611.142-1.549.142-1.42 0-2.784-.61-1.35-.611-2.244-1.861-.88-1.25-.88-3.154zM295.965 278.814l-3.011.853q-.284-.753-.838-1.464-.54-.724-1.477-1.193-.938-.468-2.401-.468-2.003 0-3.338.923-1.321.909-1.321 2.315 0 1.25.909 1.975.91.724 2.84 1.207l3.24.795q2.926.71 4.36 2.174 1.435 1.449 1.435 3.736 0 1.875-1.08 3.352-1.065 1.477-2.983 2.33-1.917.852-4.46.852-3.338 0-5.525-1.45-2.188-1.448-2.77-4.232l3.182-.796q.454 1.762 1.718 2.642 1.279.881 3.338.881 2.344 0 3.722-.994 1.392-1.009 1.392-2.415 0-1.136-.795-1.903-.796-.782-2.444-1.165l-3.636-.852q-2.997-.71-4.403-2.202-1.392-1.506-1.392-3.764 0-1.847 1.037-3.267 1.05-1.42 2.855-2.23 1.818-.81 4.119-.81 3.239 0 5.085 1.42 1.861 1.42 2.642 3.75z"></path> </g> <g aria-label="cloudnode.pro • support@cloudnode.pro" style="fill:#64748b"> <path d="M81.92 504.682q-2.147 0-3.698-1.014-1.552-1.015-2.387-2.794-.835-1.78-.835-4.067 0-2.327.855-4.107.865-1.79 2.406-2.794 1.551-1.014 3.62-1.014 1.61 0 2.903.597 1.293.596 2.118 1.67.825 1.074 1.024 2.506H85.58q-.269-1.044-1.194-1.85-.914-.815-2.466-.815-1.372 0-2.406.716-1.024.706-1.6 1.998-.567 1.283-.567 3.013 0 1.77.556 3.083.567 1.312 1.591 2.038 1.034.726 2.426.726.915 0 1.661-.318.746-.319 1.263-.915.517-.597.736-1.432h2.346q-.199 1.352-.984 2.436-.776 1.074-2.058 1.71-1.273.627-2.964.627zM93.693 484v20.364h-2.346V484zM104.193 504.682q-2.068 0-3.63-.985-1.55-.984-2.425-2.754-.865-1.77-.865-4.136 0-2.387.865-4.166.875-1.78 2.426-2.765 1.56-.984 3.63-.984 2.067 0 3.618.984 1.562.985 2.427 2.765.875 1.78.875 4.166 0 2.366-.875 4.136-.865 1.77-2.427 2.754-1.55.985-3.619.985zm0-2.108q1.571 0 2.585-.806 1.015-.805 1.502-2.117.487-1.313.487-2.844t-.487-2.854q-.487-1.322-1.502-2.138-1.014-.815-2.585-.815-1.57 0-2.585.815-1.014.816-1.502 2.138-.487 1.323-.487 2.854 0 1.531.487 2.844.488 1.312 1.502 2.117 1.014.806 2.585.806zM124.318 498.12v-9.03h2.347v15.274h-2.347v-2.586h-.159q-.537 1.164-1.67 1.98-1.134.804-2.864.804-1.432 0-2.546-.626-1.113-.636-1.75-1.909-.636-1.283-.636-3.232v-9.704h2.347v9.545q0 1.67.934 2.665.945.994 2.407.994.875 0 1.78-.447.914-.447 1.53-1.372.627-.925.627-2.357zM136.727 504.682q-1.909 0-3.37-.965-1.462-.974-2.288-2.744-.825-1.78-.825-4.206 0-2.406.825-4.176.826-1.77 2.297-2.734 1.472-.965 3.4-.965 1.492 0 2.357.497.875.487 1.333 1.114.467.616.726 1.014h.199V484h2.346v20.364h-2.267v-2.347h-.278q-.259.418-.736 1.054-.477.626-1.362 1.124-.885.487-2.357.487zm.318-2.108q1.412 0 2.387-.736.974-.746 1.481-2.058.507-1.323.507-3.053 0-1.71-.497-2.993-.497-1.292-1.471-2.008-.975-.726-2.407-.726-1.491 0-2.485.766-.985.755-1.482 2.058-.487 1.292-.487 2.903 0 1.63.497 2.963.507 1.323 1.491 2.108.995.776 2.466.776zM150.687 495.176v9.188h-2.346V489.09h2.267v2.386h.199q.537-1.163 1.63-1.87 1.094-.715 2.824-.715 1.551 0 2.715.636 1.163.627 1.81 1.91.646 1.272.646 3.221v9.705h-2.347v-9.546q0-1.8-.935-2.804-.934-1.014-2.565-1.014-1.124 0-2.008.487-.875.487-1.383 1.422-.507.935-.507 2.267zM170.932 504.682q-2.069 0-3.63-.985-1.55-.984-2.426-2.754-.865-1.77-.865-4.136 0-2.387.865-4.166.875-1.78 2.426-2.765 1.561-.984 3.63-.984 2.068 0 3.619.984 1.561.985 2.426 2.765.875 1.78.875 4.166 0 2.366-.875 4.136-.865 1.77-2.426 2.754-1.551.985-3.62.985zm0-2.108q1.57 0 2.585-.806 1.014-.805 1.501-2.117.487-1.313.487-2.844t-.487-2.854q-.487-1.322-1.501-2.138-1.014-.815-2.585-.815t-2.586.815q-1.014.816-1.501 2.138-.487 1.323-.487 2.854 0 1.531.487 2.844.487 1.312 1.501 2.117 1.015.806 2.586.806zM187.199 504.682q-1.91 0-3.371-.965-1.462-.974-2.287-2.744-.825-1.78-.825-4.206 0-2.406.825-4.176t2.297-2.734q1.471-.965 3.4-.965 1.492 0 2.357.497.875.487 1.332 1.114.468.616.726 1.014h.199V484h2.347v20.364h-2.267v-2.347h-.279q-.258.418-.736 1.054-.477.626-1.362 1.124-.885.487-2.356.487zm.318-2.108q1.412 0 2.386-.736.975-.746 1.482-2.058.507-1.323.507-3.053 0-1.71-.497-2.993-.497-1.292-1.472-2.008-.974-.726-2.406-.726-1.492 0-2.486.766-.984.755-1.482 2.058-.487 1.292-.487 2.903 0 1.63.497 2.963.508 1.323 1.492 2.108.994.776 2.466.776zM205.216 504.682q-2.208 0-3.809-.975-1.59-.984-2.456-2.744-.855-1.77-.855-4.116 0-2.347.855-4.137.865-1.8 2.407-2.804 1.55-1.014 3.619-1.014 1.193 0 2.357.398 1.163.397 2.117 1.292.955.885 1.522 2.347.567 1.462.567 3.6v.994h-11.773v-2.029h9.386q0-1.292-.517-2.307-.507-1.014-1.452-1.6-.934-.587-2.207-.587-1.402 0-2.426.696-1.014.686-1.561 1.79-.547 1.103-.547 2.366v1.353q0 1.73.597 2.933.606 1.193 1.68 1.82 1.074.616 2.496.616.924 0 1.67-.259.756-.268 1.303-.795.547-.537.845-1.333l2.267.637q-.358 1.153-1.203 2.028-.845.865-2.088 1.353-1.243.477-2.794.477zM216.83 504.523q-.737 0-1.264-.527t-.527-1.263q0-.736.527-1.263.527-.527 1.263-.527.736 0 1.263.527.527.527.527 1.263 0 .487-.249.895-.238.408-.646.656-.398.239-.895.239zM222.835 510.09v-21h2.267v2.427h.278q.259-.398.716-1.014.468-.627 1.333-1.114.875-.497 2.366-.497 1.93 0 3.4.965 1.472.964 2.298 2.734.825 1.77.825 4.176 0 2.426-.825 4.206-.826 1.77-2.287 2.744-1.462.965-3.371.965-1.472 0-2.357-.487-.885-.498-1.362-1.124-.477-.636-.736-1.054h-.198v8.074zm2.307-13.363q0 1.73.507 3.053.507 1.312 1.481 2.058.975.736 2.387.736 1.471 0 2.456-.776.994-.785 1.491-2.108.507-1.332.507-2.963 0-1.61-.497-2.903-.487-1.303-1.481-2.058-.985-.766-2.476-.766-1.432 0-2.406.726-.975.716-1.472 2.008-.497 1.283-.497 2.993zM239.897 504.364V489.09h2.267v2.307h.16q.417-1.134 1.51-1.84 1.095-.706 2.467-.706.258 0 .646.01t.587.03v2.386q-.12-.03-.547-.09-.418-.069-.885-.069-1.114 0-1.989.468-.865.457-1.372 1.272-.497.806-.497 1.84v9.665zM256.045 504.682q-2.068 0-3.63-.985-1.55-.984-2.425-2.754-.865-1.77-.865-4.136 0-2.387.865-4.166.875-1.78 2.426-2.765 1.56-.984 3.63-.984 2.067 0 3.618.984 1.561.985 2.427 2.765.875 1.78.875 4.166 0 2.366-.875 4.136-.866 1.77-2.427 2.754-1.55.985-3.619.985zm0-2.108q1.571 0 2.585-.806 1.015-.805 1.502-2.117.487-1.313.487-2.844t-.487-2.854q-.487-1.322-1.502-2.138-1.014-.815-2.585-.815-1.57 0-2.585.815-1.014.816-1.502 2.138-.487 1.323-.487 2.854 0 1.531.487 2.844.488 1.312 1.502 2.117 1.014.806 2.585.806zM280.147 500.625q-1.203 0-2.197-.587-.994-.596-1.591-1.59-.587-.995-.587-2.198 0-1.213.587-2.197.597-.995 1.59-1.581.995-.597 2.198-.597 1.213 0 2.198.597.994.586 1.58 1.58.597.985.597 2.198 0 1.203-.596 2.197-.587.995-1.581 1.591-.985.587-2.198.587zM308.863 492.511l-2.108.597q-.199-.527-.587-1.024-.377-.507-1.034-.835-.656-.329-1.68-.329-1.402 0-2.337.647-.924.636-.924 1.62 0 .875.636 1.383.636.507 1.989.845l2.267.557q2.048.497 3.052 1.52 1.004 1.015 1.004 2.616 0 1.312-.755 2.347-.746 1.034-2.088 1.63-1.343.597-3.122.597-2.337 0-3.868-1.014-1.532-1.015-1.94-2.963l2.228-.557q.318 1.233 1.203 1.85.895.616 2.337.616 1.64 0 2.605-.696.974-.706.974-1.69 0-.796-.556-1.333-.557-.547-1.71-.815l-2.546-.597q-2.098-.497-3.083-1.541-.974-1.054-.974-2.635 0-1.293.726-2.287.736-.994 1.998-1.561 1.273-.567 2.884-.567 2.267 0 3.56.994 1.302.995 1.85 2.625zM322.306 498.12v-9.03h2.347v15.274h-2.347v-2.586h-.159q-.537 1.164-1.67 1.98-1.134.804-2.864.804-1.432 0-2.545-.626-1.114-.636-1.75-1.909-.637-1.283-.637-3.232v-9.704h2.347v9.545q0 1.67.934 2.665.945.994 2.407.994.875 0 1.78-.447.914-.447 1.53-1.372.627-.925.627-2.357zM328.948 510.09v-21h2.267v2.427h.279q.258-.398.716-1.014.467-.627 1.332-1.114.875-.497 2.366-.497 1.93 0 3.401.965 1.472.964 2.297 2.734.825 1.77.825 4.176 0 2.426-.825 4.206-.825 1.77-2.287 2.744-1.462.965-3.37.965-1.472 0-2.357-.487-.885-.498-1.363-1.124-.477-.636-.735-1.054h-.2v8.074zm2.307-13.363q0 1.73.507 3.053.507 1.312 1.482 2.058.974.736 2.386.736 1.472 0 2.456-.776.994-.785 1.491-2.108.508-1.332.508-2.963 0-1.61-.498-2.903-.487-1.303-1.481-2.058-.984-.766-2.476-.766-1.432 0-2.406.726-.975.716-1.472 2.008-.497 1.283-.497 2.993zM346.01 510.09v-21h2.268v2.427h.278q.259-.398.716-1.014.467-.627 1.332-1.114.875-.497 2.367-.497 1.929 0 3.4.965 1.472.964 2.297 2.734.826 1.77.826 4.176 0 2.426-.826 4.206-.825 1.77-2.287 2.744-1.461.965-3.37.965-1.472 0-2.357-.487-.885-.498-1.362-1.124-.477-.636-.736-1.054h-.199v8.074zm2.308-13.363q0 1.73.507 3.053.507 1.312 1.481 2.058.975.736 2.387.736 1.471 0 2.455-.776.995-.785 1.492-2.108.507-1.332.507-2.963 0-1.61-.497-2.903-.487-1.303-1.482-2.058-.984-.766-2.475-.766-1.432 0-2.407.726-.974.716-1.471 2.008-.497 1.283-.497 2.993zM369.278 504.682q-2.068 0-3.63-.985-1.55-.984-2.426-2.754-.865-1.77-.865-4.136 0-2.387.865-4.166.875-1.78 2.426-2.765 1.562-.984 3.63-.984 2.068 0 3.619.984 1.561.985 2.426 2.765.875 1.78.875 4.166 0 2.366-.875 4.136-.865 1.77-2.426 2.754-1.551.985-3.62.985zm0-2.108q1.57 0 2.585-.806 1.014-.805 1.501-2.117.488-1.313.488-2.844t-.488-2.854q-.487-1.322-1.501-2.138-1.014-.815-2.585-.815t-2.586.815q-1.014.816-1.501 2.138-.487 1.323-.487 2.854 0 1.531.487 2.844.487 1.312 1.501 2.117 1.015.806 2.586.806zM379.778 504.364V489.09h2.267v2.307h.159q.417-1.134 1.511-1.84 1.094-.706 2.466-.706.259 0 .646.01.388.01.587.03v2.386q-.12-.03-.547-.09-.417-.069-.885-.069-1.113 0-1.988.468-.865.457-1.373 1.272-.497.806-.497 1.84v9.665zM397.795 489.09v1.99h-7.915v-1.99zm-5.608-3.658h2.346v14.557q0 .994.289 1.491.298.487.755.656.468.16.985.16.387 0 .636-.04l.398-.08.477 2.108q-.239.09-.666.18-.428.098-1.084.098-.994 0-1.949-.427-.944-.428-1.57-1.303-.617-.875-.617-2.207zM413.067 509.733q-3.042 0-5.379-.835-2.337-.826-3.927-2.436-1.591-1.611-2.407-3.948-.815-2.336-.815-5.35 0-2.913.825-5.21.835-2.296 2.416-3.897 1.591-1.611 3.858-2.456 2.277-.845 5.15-.845 2.795 0 4.893.914 2.108.905 3.52 2.456 1.422 1.542 2.128 3.47.716 1.93.716 3.978 0 1.442-.14 2.923-.139 1.482-.586 2.725-.448 1.233-1.382 1.988-.925.756-2.506.756-.696 0-1.531-.219t-1.482-.726q-.646-.507-.765-1.362h-.12q-.238.577-.736 1.094-.487.517-1.282.825-.786.308-1.92.269-1.292-.05-2.276-.577-.985-.537-1.65-1.452-.657-.925-.995-2.138-.328-1.223-.328-2.635 0-1.342.397-2.456.398-1.113 1.104-1.948.716-.836 1.67-1.333.965-.507 2.079-.626.994-.1 1.81.09.815.178 1.342.546.527.358.666.796h.12V491h2.107v8.989q0 .835.468 1.471.467.637 1.362.637 1.014 0 1.55-.696.548-.696.747-2.148.208-1.452.208-3.719 0-1.332-.367-2.625-.358-1.302-1.094-2.436-.726-1.134-1.84-1.999-1.113-.865-2.615-1.352-1.491-.497-3.39-.497-2.337 0-4.186.726-1.84.716-3.133 2.098-1.282 1.372-1.958 3.34-.667 1.96-.667 4.455 0 2.536.667 4.505.676 1.968 1.988 3.32 1.323 1.353 3.272 2.049 1.948.706 4.494.706 1.094 0 2.158-.209 1.063-.209 1.879-.457.815-.249 1.173-.368l.557 1.83q-.617.258-1.61.516-.985.259-2.109.428-1.113.169-2.128.169zm-1.153-7.915q1.332 0 2.158-.537.825-.537 1.203-1.62.378-1.084.378-2.735 0-1.67-.418-2.605t-1.233-1.312q-.815-.378-2.009-.378-1.133 0-1.938.596-.796.587-1.223 1.571-.418.975-.418 2.128 0 1.273.338 2.396.338 1.114 1.104 1.81.765.686 2.058.686zM433.75 504.682q-2.149 0-3.7-1.014-1.55-1.015-2.386-2.794-.835-1.78-.835-4.067 0-2.327.855-4.107.865-1.79 2.406-2.794 1.551-1.014 3.62-1.014 1.61 0 2.903.597 1.292.596 2.118 1.67.825 1.074 1.024 2.506h-2.347q-.268-1.044-1.193-1.85-.915-.815-2.466-.815-1.372 0-2.406.716-1.024.706-1.6 1.998-.568 1.283-.568 3.013 0 1.77.557 3.083.567 1.312 1.591 2.038 1.034.726 2.426.726.915 0 1.66-.318.746-.319 1.263-.915.518-.597.736-1.432h2.347q-.199 1.352-.985 2.436-.775 1.074-2.058 1.71-1.272.627-2.963.627zM445.522 484v20.364h-2.347V484zM456.022 504.682q-2.068 0-3.63-.985-1.55-.984-2.426-2.754-.865-1.77-.865-4.136 0-2.387.865-4.166.875-1.78 2.427-2.765 1.56-.984 3.629-.984 2.068 0 3.62.984 1.56.985 2.425 2.765.875 1.78.875 4.166 0 2.366-.875 4.136-.865 1.77-2.426 2.754-1.551.985-3.62.985zm0-2.108q1.57 0 2.585-.806 1.014-.805 1.501-2.117.488-1.313.488-2.844t-.488-2.854q-.487-1.322-1.5-2.138-1.015-.815-2.586-.815t-2.585.815q-1.015.816-1.502 2.138-.487 1.323-.487 2.854 0 1.531.487 2.844.487 1.312 1.502 2.117 1.014.806 2.585.806zM476.147 498.12v-9.03h2.346v15.274h-2.346v-2.586h-.16q-.536 1.164-1.67 1.98-1.133.804-2.863.804-1.432 0-2.546-.626-1.113-.636-1.75-1.909-.636-1.283-.636-3.232v-9.704h2.346v9.545q0 1.67.935 2.665.945.994 2.406.994.875 0 1.78-.447.915-.447 1.531-1.372.627-.925.627-2.357zM488.556 504.682q-1.91 0-3.37-.965-1.463-.974-2.288-2.744-.825-1.78-.825-4.206 0-2.406.825-4.176t2.297-2.734q1.472-.965 3.4-.965 1.492 0 2.357.497.875.487 1.333 1.114.467.616.725 1.014h.2V484h2.346v20.364h-2.267v-2.347h-.279q-.258.418-.735 1.054-.478.626-1.363 1.124-.885.487-2.356.487zm.318-2.108q1.412 0 2.386-.736.975-.746 1.482-2.058.507-1.323.507-3.053 0-1.71-.497-2.993-.497-1.292-1.472-2.008-.974-.726-2.406-.726-1.491 0-2.486.766-.984.755-1.481 2.058-.487 1.292-.487 2.903 0 1.63.497 2.963.507 1.323 1.491 2.108.994.776 2.466.776zM502.516 495.176v9.188h-2.347V489.09h2.267v2.386h.2q.536-1.163 1.63-1.87 1.094-.715 2.824-.715 1.551 0 2.714.636 1.164.627 1.81 1.91.646 1.272.646 3.221v9.705h-2.346v-9.546q0-1.8-.935-2.804-.935-1.014-2.565-1.014-1.124 0-2.009.487-.875.487-1.382 1.422-.507.935-.507 2.267zM522.76 504.682q-2.068 0-3.629-.985-1.551-.984-2.426-2.754-.865-1.77-.865-4.136 0-2.387.865-4.166.875-1.78 2.426-2.765 1.561-.984 3.63-.984 2.068 0 3.619.984 1.56.985 2.426 2.765.875 1.78.875 4.166 0 2.366-.875 4.136-.865 1.77-2.426 2.754-1.551.985-3.62.985zm0-2.108q1.571 0 2.586-.806 1.014-.805 1.501-2.117.487-1.313.487-2.844t-.487-2.854q-.487-1.322-1.501-2.138-1.015-.815-2.586-.815-1.57 0-2.585.815-1.014.816-1.501 2.138-.488 1.323-.488 2.854 0 1.531.488 2.844.487 1.312 1.501 2.117 1.014.806 2.585.806zM539.027 504.682q-1.909 0-3.37-.965-1.462-.974-2.287-2.744-.826-1.78-.826-4.206 0-2.406.826-4.176.825-1.77 2.297-2.734 1.471-.965 3.4-.965 1.492 0 2.357.497.875.487 1.332 1.114.467.616.726 1.014h.199V484h2.346v20.364h-2.267v-2.347h-.278q-.259.418-.736 1.054-.477.626-1.362 1.124-.885.487-2.357.487zm.319-2.108q1.411 0 2.386-.736.974-.746 1.481-2.058.508-1.323.508-3.053 0-1.71-.498-2.993-.497-1.292-1.471-2.008-.975-.726-2.406-.726-1.492 0-2.486.766-.985.755-1.482 2.058-.487 1.292-.487 2.903 0 1.63.497 2.963.507 1.323 1.492 2.108.994.776 2.466.776zM557.044 504.682q-2.207 0-3.808-.975-1.59-.984-2.456-2.744-.855-1.77-.855-4.116 0-2.347.855-4.137.865-1.8 2.406-2.804 1.552-1.014 3.62-1.014 1.193 0 2.356.398 1.164.397 2.118 1.292.955.885 1.521 2.347.567 1.462.567 3.6v.994h-11.773v-2.029h9.387q0-1.292-.517-2.307-.507-1.014-1.452-1.6-.935-.587-2.207-.587-1.402 0-2.426.696-1.015.686-1.561 1.79-.547 1.103-.547 2.366v1.353q0 1.73.596 2.933.607 1.193 1.68 1.82 1.074.616 2.496.616.925 0 1.67-.259.756-.268 1.303-.795.547-.537.846-1.333l2.267.637q-.358 1.153-1.204 2.028-.845.865-2.088 1.353-1.243.477-2.794.477zM568.658 504.523q-.736 0-1.263-.527-.527-.527-.527-1.263 0-.736.527-1.263.527-.527 1.263-.527.736 0 1.263.527.527.527.527 1.263 0 .487-.249.895-.238.408-.646.656-.398.239-.895.239zM574.664 510.09v-21h2.267v2.427h.278q.259-.398.716-1.014.467-.627 1.332-1.114.875-.497 2.367-.497 1.929 0 3.4.965 1.472.964 2.297 2.734.826 1.77.826 4.176 0 2.426-.826 4.206-.825 1.77-2.287 2.744-1.461.965-3.37.965-1.472 0-2.357-.487-.885-.498-1.362-1.124-.477-.636-.736-1.054h-.199v8.074zm2.306-13.363q0 1.73.508 3.053.507 1.312 1.481 2.058.975.736 2.386.736 1.472 0 2.456-.776.995-.785 1.492-2.108.507-1.332.507-2.963 0-1.61-.497-2.903-.487-1.303-1.482-2.058-.984-.766-2.476-.766-1.431 0-2.406.726-.974.716-1.471 2.008-.498 1.283-.498 2.993zM591.726 504.364V489.09h2.267v2.307h.16q.417-1.134 1.51-1.84 1.094-.706 2.467-.706.258 0 .646.01t.586.03v2.386q-.119-.03-.546-.09-.418-.069-.885-.069-1.114 0-1.989.468-.865.457-1.372 1.272-.497.806-.497 1.84v9.665zM607.874 504.682q-2.068 0-3.63-.985-1.55-.984-2.426-2.754-.865-1.77-.865-4.136 0-2.387.865-4.166.875-1.78 2.427-2.765 1.56-.984 3.629-.984 2.068 0 3.62.984 1.56.985 2.425 2.765.875 1.78.875 4.166 0 2.366-.875 4.136-.865 1.77-2.426 2.754-1.551.985-3.62.985zm0-2.108q1.57 0 2.585-.806 1.014-.805 1.501-2.117.488-1.313.488-2.844t-.488-2.854q-.487-1.322-1.501-2.138-1.014-.815-2.585-.815t-2.585.815q-1.015.816-1.502 2.138-.487 1.323-.487 2.854 0 1.531.487 2.844.487 1.312 1.502 2.117 1.014.806 2.585.806z"></path> </g></svg>
